<?xml version="1.0" encoding="UTF-8" standalone="no"?><svg width="32" height="27" viewBox="0 0 32 27" fill="none" xmlns="http://www.w3.org/2000/svg">
<path d="M26.487 -2.19719e-07C25.9703 -2.15433e-07 25.5096 0.115942 25.1049 0.347826L25.0433 0.347826C24.0829 0.347826 23.2631 0.687402 22.5839 1.36655C22.4457 1.50478 22.3213 1.65011 22.2108 1.80255L15.6813 2.80709L15.6767 2.80781L15.6653 2.80962L15.6569 2.811C15.3839 2.8565 15.1301 2.95249 14.8953 3.09899C14.6605 3.24549 14.4626 3.43134 14.3018 3.65655C14.1867 3.81767 14.0968 3.99015 14.0321 4.174L8.15929 4.17394C7.38178 4.17393 6.66058 4.37545 5.99569 4.77849C5.3308 5.18153 4.81853 5.72772 4.45888 6.41704L0.157795 14.6608C0.0525985 14.8624 1.25069e-07 15.0769 1.26955e-07 15.3043C1.28842e-07 15.5318 0.0525988 15.7463 0.157796 15.9479L4.45889 24.1917C4.81853 24.881 5.3308 25.4272 5.99568 25.8302C6.66056 26.2332 7.38175 26.4348 8.15925 26.4348L29.2176 26.4348C29.9859 26.4348 30.6417 26.1631 31.185 25.6198C31.7283 25.0765 32 24.4207 32 23.6524L32 6.95662C32 6.18827 31.7284 5.53244 31.1851 4.98912C30.6418 4.44582 29.9859 4.17417 29.2176 4.17416L28.9045 4.17415C29.1479 3.76071 29.2696 3.29686 29.2696 2.78261C29.2696 2.01421 28.9979 1.35834 28.4546 0.815006C27.9112 0.271669 27.2554 -2.26093e-07 26.487 -2.19719e-07Z" fill="#F8EF1F"/>
<path d="M6.03335 15.2689C6.03335 15.9097 5.51388 16.4292 4.87309 16.4292C4.2323 16.4292 3.71283 15.9097 3.71283 15.2689C3.71283 14.6281 4.2323 14.1086 4.87309 14.1086C5.51388 14.1086 6.03335 14.6281 6.03335 15.2689Z" fill="#021544"/>
<path fill-rule="evenodd" clip-rule="evenodd" d="M24.6223 16.9674L25.2644 9.77026L28.311 9.77026L29.1694 19.5094L27.463 19.5094L27.3373 17.9334L26.2485 17.9334L26.1439 19.5094L24.6223 19.5094L24.6223 19.5108L23.8999 19.5108L23.5963 18.9268C23.2753 19.3594 22.7798 19.5757 22.1097 19.5757C21.4606 19.5757 20.9773 19.3986 20.6598 19.0444C20.3422 18.6903 20.1834 18.1537 20.1834 17.4345L20.1834 14.4337C20.1834 13.7903 20.3684 13.3037 20.7383 12.9739C21.1082 12.644 21.6596 12.4791 22.3924 12.4791C22.9856 12.4791 23.4463 12.571 23.7743 12.7549C24.1023 12.9387 24.3292 13.2064 24.4548 13.5578C24.5804 13.9093 24.6433 14.3607 24.6433 14.9122L22.8844 14.9122L22.8844 14.2877C22.8844 14.1201 22.8548 13.9904 22.7955 13.8984C22.7361 13.8065 22.6297 13.7606 22.4761 13.7606C22.1342 13.7606 21.9632 13.9336 21.9632 14.2796L21.9632 17.6535C21.9632 17.8644 21.9981 18.0239 22.0679 18.132C22.1376 18.2402 22.2598 18.2942 22.4343 18.2942C22.6088 18.2942 22.7309 18.2402 22.8007 18.132C22.8705 18.0239 22.9054 17.8644 22.9054 17.6535L22.9054 16.656L22.4238 16.656L22.4238 15.4556L24.6223 15.4556L24.6223 16.9674ZM7.38462 21.4175C7.70219 21.973 8.18551 22.2507 8.8346 22.2507C9.50462 22.2507 10.0002 21.9115 10.3212 21.233L10.6248 22.1489L11.3472 22.1489L11.3472 19.4984L12.8687 19.4984L12.9734 18.1546L14.0622 18.1546L14.1878 19.4984L15.7407 19.4984L15.7407 19.5094L17.4995 19.5094L17.4995 15.957L18.3999 19.5094L20.1587 19.5094L20.1587 12.4128L18.4208 12.4128L18.4208 15.8083L17.5938 12.4128L15.7407 12.4128L15.7407 18.0128L15.0358 11.1939L11.9893 11.1939L11.3472 17.3308L11.3472 15.7887L9.14867 15.7887L9.14867 17.6713L9.63025 17.6713L9.63025 19.2359C9.63025 19.5667 9.59535 19.8168 9.52556 19.9864C9.45576 20.156 9.33362 20.2408 9.15914 20.2408C8.98465 20.2408 8.86251 20.156 8.79272 19.9864C8.72293 19.8168 8.68803 19.5667 8.68803 19.2359L8.68803 13.9442C8.68803 13.4015 8.85902 13.1301 9.20101 13.1301C9.35456 13.1301 9.461 13.2022 9.52032 13.3463C9.57965 13.4905 9.60931 13.694 9.60931 13.9569L9.60931 14.9364L11.3681 14.9364C11.3681 14.0714 11.3053 13.3633 11.1797 12.8121C11.054 12.2609 10.8272 11.8411 10.4992 11.5528C10.1712 11.2644 9.71051 11.1203 9.11726 11.1203C8.38442 11.1203 7.83305 11.3789 7.46314 11.8962C7.09323 12.4135 6.90828 13.1767 6.90828 14.1859L6.90828 18.8925C6.90828 20.0204 7.06706 20.862 7.38462 21.4175ZM27.2009 16.7016L26.3843 16.7016L26.7193 12.5277L26.8031 12.5277L27.2009 16.7016ZM13.9261 17.2233L13.1095 17.2233L13.4445 13.6037L13.5283 13.6037L13.9261 17.2233Z" fill="#021544"/>
<path fill-rule="evenodd" clip-rule="evenodd" d="M26.899 23.68C26.7027 23.68 26.5682 23.6006 26.4954 23.4418C26.4227 23.283 26.3863 23.056 26.3863 22.7609C26.3863 22.5192 26.4123 22.3337 26.4643 22.2044C26.5162 22.0751 26.5884 21.9802 26.6807 21.9198C26.7731 21.8594 26.914 21.7926 27.1033 21.7195L27.2696 21.6521L27.2696 21.3359C27.2696 21.2544 27.2563 21.1918 27.2297 21.1482C27.2032 21.1047 27.1714 21.0829 27.1345 21.0829C27.1022 21.0829 27.0739 21.1012 27.0496 21.1377C27.0254 21.1742 27.0133 21.2234 27.0133 21.2853L27.0133 21.4708L26.4244 21.4708L26.4244 21.3696C26.4244 21.066 26.4827 20.8496 26.5993 20.7203C26.716 20.591 26.9059 20.5264 27.1691 20.5264C27.3792 20.5264 27.5501 20.5931 27.6817 20.7266C27.8134 20.8602 27.8792 21.0492 27.8792 21.2937L27.8792 23.6462L27.2765 23.6462L27.2765 23.2795C27.2465 23.4059 27.1986 23.5043 27.1327 23.5746C27.0669 23.6448 26.989 23.68 26.899 23.68ZM27.1379 23.1067C27.1841 23.1067 27.217 23.0835 27.2366 23.0371C27.2563 22.9907 27.2661 22.9338 27.2661 22.8663L27.2661 22.0063C27.176 22.0484 27.1096 22.1018 27.0669 22.1665C27.0242 22.2311 27.0028 22.3211 27.0028 22.4363L27.0028 22.8326C27.0028 23.0153 27.0479 23.1067 27.1379 23.1067ZM25.4996 23.68C25.2225 23.68 25.0228 23.5943 24.9004 23.4228C24.778 23.2514 24.7168 22.9886 24.7168 22.6344L24.7168 21.6816C24.7168 21.4146 24.7405 21.1975 24.7878 21.0302C24.8352 20.863 24.9148 20.7372 25.0268 20.6529C25.1388 20.5686 25.2941 20.5264 25.4927 20.5264C25.7098 20.5264 25.8864 20.5953 26.0226 20.733C26.1589 20.8707 26.227 21.0633 26.227 21.3106L26.227 21.7828L25.6105 21.7828L25.6105 21.3485C25.6105 21.267 25.6012 21.2045 25.5827 21.1609C25.5643 21.1174 25.5285 21.0956 25.4754 21.0956C25.3761 21.0956 25.3264 21.1813 25.3264 21.3528L25.3264 22.8495C25.3264 22.9197 25.3386 22.9794 25.3628 23.0286C25.3871 23.0778 25.4234 23.1024 25.4719 23.1024C25.5204 23.1024 25.5568 23.0785 25.581 23.0307C25.6053 22.983 25.6162 22.9211 25.6139 22.8452L25.6105 22.3267L26.227 22.3267L26.227 22.8663C26.227 23.1193 26.1595 23.3181 26.0244 23.4629C25.8893 23.6076 25.7144 23.68 25.4996 23.68ZM23.8925 20.3535L23.8925 19.8392L24.4986 19.8392L24.4986 20.3535L23.8925 20.3535ZM23.8924 23.6463L23.8924 20.5602L24.4986 20.5602L24.4986 23.6463L23.8924 23.6463ZM22.1675 20.5601L22.7737 20.5601L22.7737 20.9522C22.7991 20.8257 22.843 20.7231 22.9053 20.6444C22.9676 20.5657 23.0508 20.5264 23.1547 20.5264C23.3256 20.5264 23.452 20.5903 23.534 20.7182C23.6159 20.8461 23.6569 21.0281 23.6569 21.2642L23.6569 23.6462L23.0612 23.6462L23.0612 21.3401C23.0612 21.2726 23.0502 21.215 23.0283 21.1672C23.0063 21.1194 22.9723 21.0955 22.9261 21.0955C22.8637 21.0955 22.8227 21.13 22.8031 21.1988C22.7835 21.2677 22.7737 21.3597 22.7737 21.475L22.7737 23.6462L22.1675 23.6462L22.1675 20.5601ZM21.1838 23.6799C20.6781 23.6799 20.4253 23.3609 20.4253 22.7229L20.4253 21.4834C20.4253 21.1911 20.4928 20.9585 20.6279 20.7856C20.763 20.6128 20.9483 20.5264 21.1838 20.5264C21.4194 20.5264 21.6047 20.6128 21.7398 20.7856C21.8748 20.9585 21.9424 21.1911 21.9424 21.4834L21.9424 22.7229C21.9424 23.3609 21.6895 23.6799 21.1838 23.6799ZM21.1838 23.1108C21.2323 23.1108 21.2681 23.0897 21.2912 23.0475C21.3143 23.0054 21.3259 22.9477 21.3259 22.8747L21.3259 21.3653C21.3259 21.1854 21.2785 21.0955 21.1838 21.0955C21.0892 21.0955 21.0418 21.1854 21.0418 21.3653L21.0418 22.8747C21.0418 22.9477 21.0534 23.0054 21.0765 23.0475C21.0996 23.0897 21.1354 23.1108 21.1838 23.1108ZM20.7786 20.4168L20.7786 19.9572L21.5822 19.5061L21.5822 20.2228L20.7786 20.4168ZM19.2546 20.5601L19.8607 20.5601L19.8607 20.9016C19.8907 20.7808 19.9433 20.6873 20.0183 20.6213C20.0934 20.5552 20.1863 20.5222 20.2971 20.5222L20.2971 21.1377C20.2117 21.1377 20.1176 21.1525 20.0149 21.182C19.9121 21.2115 19.8607 21.2459 19.8607 21.2853L19.8607 23.6463L19.2546 23.6463L19.2546 20.5601ZM18.7212 23.68C18.5618 23.68 18.4521 23.6392 18.3921 23.5577C18.3321 23.4762 18.3021 23.3455 18.3021 23.1656L18.3021 21.2389L18.1323 21.2389L18.1323 20.6782L18.3021 20.6782L18.3021 20.0247L18.8909 20.0247L18.8909 20.6782L19.0641 20.6782L19.0641 21.2389L18.8909 21.2389L18.8909 22.9717C18.8909 23.0251 18.8943 23.0645 18.9013 23.0898C18.9082 23.115 18.9267 23.1277 18.9567 23.1277C18.9798 23.1277 19.0017 23.1263 19.0225 23.1235C19.0433 23.1207 19.0571 23.1193 19.0641 23.1193L19.0641 23.6252C19.0294 23.6364 18.9792 23.6484 18.9134 23.661C18.8476 23.6737 18.7835 23.68 18.7212 23.68ZM17.3027 23.6799C17.0256 23.6799 16.8259 23.5942 16.7035 23.4228C16.5811 23.2513 16.5199 22.9885 16.5199 22.6344L16.5199 21.6815C16.5199 21.4145 16.5436 21.1974 16.5909 21.0302C16.6383 20.8629 16.718 20.7371 16.8299 20.6528C16.9419 20.5685 17.0972 20.5263 17.2958 20.5263C17.5129 20.5263 17.6895 20.5952 17.8258 20.7329C17.962 20.8707 18.0301 21.0632 18.0301 21.3105L18.0301 21.7827L17.4136 21.7827L17.4136 21.3485C17.4136 21.267 17.4043 21.2044 17.3859 21.1609C17.3674 21.1173 17.3316 21.0955 17.2785 21.0955C17.1792 21.0955 17.1296 21.1812 17.1296 21.3527L17.1296 22.8494C17.1296 22.9196 17.1417 22.9794 17.1659 23.0286C17.1902 23.0777 17.2265 23.1023 17.275 23.1023C17.3235 23.1023 17.3599 23.0784 17.3841 23.0307C17.4084 22.9829 17.4194 22.921 17.417 22.8452L17.4136 22.3266L18.0301 22.3266L18.0301 22.8662C18.0301 23.1192 17.9626 23.3181 17.8275 23.4628C17.6924 23.6076 17.5175 23.6799 17.3027 23.6799ZM15.5605 23.68C15.2996 23.68 15.1125 23.5929 14.9994 23.4186C14.8862 23.2444 14.8297 22.9844 14.8297 22.6387L14.8297 21.3991C14.8297 21.1153 14.8966 20.8988 15.0306 20.7499C15.1645 20.6009 15.3515 20.5264 15.5917 20.5264C16.0789 20.5264 16.3225 20.8173 16.3225 21.3991L16.3225 21.6226C16.3225 21.8475 16.3202 22.0301 16.3156 22.1707L15.4358 22.1707L15.4358 22.7694C15.4358 22.8762 15.445 22.9598 15.4635 23.0202C15.482 23.0806 15.5212 23.1109 15.5813 23.1109C15.6275 23.1109 15.6604 23.094 15.68 23.0603C15.6996 23.0265 15.7112 22.9879 15.7146 22.9443C15.7181 22.9008 15.7198 22.8368 15.7198 22.7525L15.7198 22.4532L16.3225 22.4532L16.3225 22.6302C16.3225 22.99 16.2654 23.2549 16.1511 23.425C16.0368 23.595 15.8399 23.68 15.5605 23.68ZM15.7199 21.8039L15.7199 21.4075C15.7199 21.1855 15.6748 21.0745 15.5848 21.0745C15.4832 21.0745 15.4324 21.1855 15.4324 21.4075L15.4324 21.8039L15.7199 21.8039ZM13.9915 23.6463L13.9915 20.0037L14.608 20.0037L14.608 23.6463L13.9915 23.6463ZM12.5748 23.6462L12.5748 20.0247L13.7664 20.0247L13.7664 20.7245L13.181 20.7245L13.181 21.4286L13.7421 21.4286L13.7421 22.1116L13.181 22.1116L13.181 22.9422L13.8045 22.9422L13.8045 23.6462L12.5748 23.6462Z" fill="#021544"/>
<path fill-rule="evenodd" clip-rule="evenodd" d="M13.1658 11.1305C12.7928 11.1305 12.5369 11.0518 12.3982 10.8946C12.2594 10.7373 12.1901 10.503 12.1901 10.1917L12.1901 7.56794L13.391 7.56794L13.391 10.0232C13.391 10.0457 13.391 10.1058 13.391 10.2037C13.391 10.3016 13.4126 10.3706 13.4558 10.4107C13.499 10.4509 13.5661 10.4709 13.6571 10.4709C13.7799 10.4709 13.8572 10.4348 13.889 10.3626C13.9209 10.2904 13.9368 10.1869 13.9368 10.0521L13.9368 10.0232L13.9436 7.56794L15.1309 7.56794L15.1309 11.0919L13.9368 11.0919L13.9368 10.7164C13.8549 10.8641 13.7594 10.97 13.6502 11.0342C13.5411 11.0984 13.3796 11.1305 13.1658 11.1305ZM10.2616 11.092L10.2616 7.75089L9.56566 7.75089L9.56566 6.95654L12.1312 6.95654L12.1312 7.75089L11.4352 7.75089L11.4352 11.092L10.2616 11.092Z" fill="#021544"/>
<path fill-rule="evenodd" clip-rule="evenodd" d="M27.1826 2.78257C27.1826 3.16676 26.8712 3.47822 26.487 3.47822C26.2295 3.47822 26.0047 3.33832 25.8844 3.13039L25.0433 3.13039C24.67 3.13039 24.447 3.28065 24.3742 3.58117L25.0435 3.47822L25.0435 7.65213C25.0435 8.07089 24.8585 8.44644 24.5657 8.7015L24.6591 8.88814C24.8767 9.32332 24.8576 9.74786 24.6017 10.1617C24.3584 10.5555 24.0105 10.762 23.5582 10.7811C23.6179 10.8838 23.6521 11.0031 23.6521 11.1304C23.6521 11.5146 23.3407 11.826 22.9565 11.826C22.5723 11.826 22.2608 11.5146 22.2608 11.1304C22.2608 11.0037 22.2947 10.8849 22.3539 10.7826L18.6895 10.7826C18.7487 10.8849 18.7826 11.0037 18.7826 11.1304C18.7826 11.5146 18.4712 11.826 18.087 11.826C17.7028 11.826 17.3913 11.5146 17.3913 11.1304C17.3913 11.0037 17.4252 10.8849 17.4844 10.7826L16.6957 10.7826L16.6957 10.0869L23.4882 10.0869C23.7162 10.0869 23.8901 9.98995 24.01 9.79602C24.1299 9.60207 24.1388 9.40315 24.0368 9.19924L23.9437 9.01285C23.8497 9.03289 23.7522 9.04343 23.6522 9.04343L19.0529 9.04343C17.6926 9.04343 16.5318 8.06002 16.3081 6.71829L16 4.86952L23.6579 3.69138C23.6863 3.36463 23.8202 3.08157 24.0596 2.84218C24.3313 2.57055 24.6592 2.43473 25.0433 2.43473L25.8844 2.43473C26.0047 2.22681 26.2295 2.08691 26.487 2.08691C26.8712 2.08691 27.1826 2.39837 27.1826 2.78257ZM19.8261 5.56517C20.0182 5.56517 20.1739 5.40944 20.1739 5.21735C20.1739 5.02525 20.0182 4.86952 19.8261 4.86952C19.634 4.86952 19.4783 5.02525 19.4783 5.21735C19.4783 5.40944 19.634 5.56517 19.8261 5.56517ZM18.7826 7.65213C19.1668 7.65213 19.4783 7.34068 19.4783 6.95648C19.4783 6.57228 19.1668 6.26082 18.7826 6.26082C18.3984 6.26082 18.087 6.57228 18.087 6.95648C18.087 7.34068 18.3984 7.65213 18.7826 7.65213ZM22.2609 5.21735C22.2609 5.40945 22.1051 5.56517 21.913 5.56517C21.7209 5.56517 21.5652 5.40945 21.5652 5.21735C21.5652 5.02525 21.7209 4.86952 21.913 4.86952C22.1051 4.86952 22.2609 5.02525 22.2609 5.21735ZM24 5.56517C24.1921 5.56517 24.3478 5.40944 24.3478 5.21735C24.3478 5.02525 24.1921 4.86952 24 4.86952C23.8079 4.86952 23.6522 5.02525 23.6522 5.21735C23.6522 5.40944 23.8079 5.56517 24 5.56517ZM21.5652 6.95648C21.5652 7.34068 21.2538 7.65213 20.8696 7.65213C20.4854 7.65213 20.1739 7.34068 20.1739 6.95648C20.1739 6.57228 20.4854 6.26082 20.8696 6.26082C21.2538 6.26082 21.5652 6.57228 21.5652 6.95648ZM22.9565 7.65213C23.3407 7.65213 23.6522 7.34068 23.6522 6.95648C23.6522 6.57228 23.3407 6.26082 22.9565 6.26082C22.5723 6.26082 22.2609 6.57228 22.2609 6.95648C22.2609 7.34068 22.5723 7.65213 22.9565 7.65213Z" fill="#021544"/>
</svg>
